<?xml version="1.0" standalone="no"?>
<!DOCTYPE svg PUBLIC "-//W3C//DTD SVG 20010904//EN"
 "http://www.w3.org/TR/2001/REC-SVG-20010904/DTD/svg10.dtd">
<svg version="1.0" xmlns="http://www.w3.org/2000/svg"
 width="40.000000pt" height="40.000000pt" viewBox="0 0 40.000000 40.000000"
 preserveAspectRatio="xMidYMid meet">

<g transform="translate(0.000000,40.000000) scale(0.100000,-0.100000)"
fill="#000000" stroke="none">
<path d="M30 200 l0 -171 33 3 32 3 0 165 0 165 -32 3 -33 3 0 -171z"/>
<path d="M130 200 l0 -171 33 3 32 3 0 165 0 165 -32 3 -33 3 0 -171z"/>
<path d="M233 358 c-8 -9 1 -57 31 -168 39 -147 42 -155 67 -158 49 -6 49 13
5 178 -39 147 -42 155 -67 158 -14 2 -30 -3 -36 -10z"/>
</g>
</svg>
